<mxfile host="app.diagrams.net" agent="Mozilla/5.0 (X11; Linux x86_64; rv:143.0) Gecko/20100101 Firefox/143.0" version="28.2.7">
  <diagram name="Page-1" id="jd--qM6EzWcewu-U684m">
    <mxGraphModel dx="2178" dy="1310" grid="1" gridSize="10" guides="1" tooltips="1" connect="1" arrows="1" fold="1" page="1" pageScale="1" pageWidth="850" pageHeight="1100" math="0" shadow="0">
      <root>
        <mxCell id="0" />
        <mxCell id="1" parent="0" />
        <mxCell id="SLQYYDcyx8Kkwv7ZYNaE-1" value="USER" style="shape=table;startSize=25;container=1;collapsible=0;childLayout=tableLayout;fixedRows=1;rowLines=1;fontStyle=1;align=center;resizeLast=1;" vertex="1" parent="1">
          <mxGeometry x="416" y="20" width="209" height="172" as="geometry" />
        </mxCell>
        <mxCell id="SLQYYDcyx8Kkwv7ZYNaE-2" style="shape=tableRow;horizontal=0;startSize=0;swimlaneHead=0;swimlaneBody=0;fillColor=none;collapsible=0;dropTarget=0;points=[[0,0.5],[1,0.5]];portConstraint=eastwest;top=0;left=0;right=0;bottom=0;" vertex="1" parent="SLQYYDcyx8Kkwv7ZYNaE-1">
          <mxGeometry y="25" width="209" height="49" as="geometry" />
        </mxCell>
        <mxCell id="SLQYYDcyx8Kkwv7ZYNaE-3" value="int" style="shape=partialRectangle;connectable=0;fillColor=none;top=0;left=0;bottom=0;right=0;align=left;spacingLeft=2;overflow=hidden;fontSize=11;" vertex="1" parent="SLQYYDcyx8Kkwv7ZYNaE-2">
          <mxGeometry width="36" height="49" as="geometry">
            <mxRectangle width="36" height="49" as="alternateBounds" />
          </mxGeometry>
        </mxCell>
        <mxCell id="SLQYYDcyx8Kkwv7ZYNaE-4" value="User_ID" style="shape=partialRectangle;connectable=0;fillColor=none;top=0;left=0;bottom=0;right=0;align=left;spacingLeft=2;overflow=hidden;fontSize=11;" vertex="1" parent="SLQYYDcyx8Kkwv7ZYNaE-2">
          <mxGeometry x="36" width="151" height="49" as="geometry">
            <mxRectangle width="151" height="49" as="alternateBounds" />
          </mxGeometry>
        </mxCell>
        <mxCell id="SLQYYDcyx8Kkwv7ZYNaE-5" value="PK" style="shape=partialRectangle;connectable=0;fillColor=none;top=0;left=0;bottom=0;right=0;align=left;spacingLeft=2;overflow=hidden;fontSize=11;" vertex="1" parent="SLQYYDcyx8Kkwv7ZYNaE-2">
          <mxGeometry x="187" width="22" height="49" as="geometry">
            <mxRectangle width="22" height="49" as="alternateBounds" />
          </mxGeometry>
        </mxCell>
        <mxCell id="SLQYYDcyx8Kkwv7ZYNaE-6" style="shape=tableRow;horizontal=0;startSize=0;swimlaneHead=0;swimlaneBody=0;fillColor=none;collapsible=0;dropTarget=0;points=[[0,0.5],[1,0.5]];portConstraint=eastwest;top=0;left=0;right=0;bottom=0;" vertex="1" parent="SLQYYDcyx8Kkwv7ZYNaE-1">
          <mxGeometry y="74" width="209" height="49" as="geometry" />
        </mxCell>
        <mxCell id="SLQYYDcyx8Kkwv7ZYNaE-7" value="string" style="shape=partialRectangle;connectable=0;fillColor=none;top=0;left=0;bottom=0;right=0;align=left;spacingLeft=2;overflow=hidden;fontSize=11;" vertex="1" parent="SLQYYDcyx8Kkwv7ZYNaE-6">
          <mxGeometry width="36" height="49" as="geometry">
            <mxRectangle width="36" height="49" as="alternateBounds" />
          </mxGeometry>
        </mxCell>
        <mxCell id="SLQYYDcyx8Kkwv7ZYNaE-8" value="Username" style="shape=partialRectangle;connectable=0;fillColor=none;top=0;left=0;bottom=0;right=0;align=left;spacingLeft=2;overflow=hidden;fontSize=11;" vertex="1" parent="SLQYYDcyx8Kkwv7ZYNaE-6">
          <mxGeometry x="36" width="151" height="49" as="geometry">
            <mxRectangle width="151" height="49" as="alternateBounds" />
          </mxGeometry>
        </mxCell>
        <mxCell id="SLQYYDcyx8Kkwv7ZYNaE-9" value="" style="shape=partialRectangle;connectable=0;fillColor=none;top=0;left=0;bottom=0;right=0;align=left;spacingLeft=2;overflow=hidden;fontSize=11;" vertex="1" parent="SLQYYDcyx8Kkwv7ZYNaE-6">
          <mxGeometry x="187" width="22" height="49" as="geometry">
            <mxRectangle width="22" height="49" as="alternateBounds" />
          </mxGeometry>
        </mxCell>
        <mxCell id="SLQYYDcyx8Kkwv7ZYNaE-10" style="shape=tableRow;horizontal=0;startSize=0;swimlaneHead=0;swimlaneBody=0;fillColor=none;collapsible=0;dropTarget=0;points=[[0,0.5],[1,0.5]];portConstraint=eastwest;top=0;left=0;right=0;bottom=0;" vertex="1" parent="SLQYYDcyx8Kkwv7ZYNaE-1">
          <mxGeometry y="123" width="209" height="49" as="geometry" />
        </mxCell>
        <mxCell id="SLQYYDcyx8Kkwv7ZYNaE-11" value="string" style="shape=partialRectangle;connectable=0;fillColor=none;top=0;left=0;bottom=0;right=0;align=left;spacingLeft=2;overflow=hidden;fontSize=11;" vertex="1" parent="SLQYYDcyx8Kkwv7ZYNaE-10">
          <mxGeometry width="36" height="49" as="geometry">
            <mxRectangle width="36" height="49" as="alternateBounds" />
          </mxGeometry>
        </mxCell>
        <mxCell id="SLQYYDcyx8Kkwv7ZYNaE-12" value="Email" style="shape=partialRectangle;connectable=0;fillColor=none;top=0;left=0;bottom=0;right=0;align=left;spacingLeft=2;overflow=hidden;fontSize=11;" vertex="1" parent="SLQYYDcyx8Kkwv7ZYNaE-10">
          <mxGeometry x="36" width="151" height="49" as="geometry">
            <mxRectangle width="151" height="49" as="alternateBounds" />
          </mxGeometry>
        </mxCell>
        <mxCell id="SLQYYDcyx8Kkwv7ZYNaE-13" value="" style="shape=partialRectangle;connectable=0;fillColor=none;top=0;left=0;bottom=0;right=0;align=left;spacingLeft=2;overflow=hidden;fontSize=11;" vertex="1" parent="SLQYYDcyx8Kkwv7ZYNaE-10">
          <mxGeometry x="187" width="22" height="49" as="geometry">
            <mxRectangle width="22" height="49" as="alternateBounds" />
          </mxGeometry>
        </mxCell>
        <mxCell id="SLQYYDcyx8Kkwv7ZYNaE-14" value="CHANNEL" style="shape=table;startSize=25;container=1;collapsible=0;childLayout=tableLayout;fixedRows=1;rowLines=1;fontStyle=1;align=center;resizeLast=1;" vertex="1" parent="1">
          <mxGeometry x="397" y="294" width="247" height="172" as="geometry" />
        </mxCell>
        <mxCell id="SLQYYDcyx8Kkwv7ZYNaE-15" style="shape=tableRow;horizontal=0;startSize=0;swimlaneHead=0;swimlaneBody=0;fillColor=none;collapsible=0;dropTarget=0;points=[[0,0.5],[1,0.5]];portConstraint=eastwest;top=0;left=0;right=0;bottom=0;" vertex="1" parent="SLQYYDcyx8Kkwv7ZYNaE-14">
          <mxGeometry y="25" width="247" height="49" as="geometry" />
        </mxCell>
        <mxCell id="SLQYYDcyx8Kkwv7ZYNaE-16" value="int" style="shape=partialRectangle;connectable=0;fillColor=none;top=0;left=0;bottom=0;right=0;align=left;spacingLeft=2;overflow=hidden;fontSize=11;" vertex="1" parent="SLQYYDcyx8Kkwv7ZYNaE-15">
          <mxGeometry width="36" height="49" as="geometry">
            <mxRectangle width="36" height="49" as="alternateBounds" />
          </mxGeometry>
        </mxCell>
        <mxCell id="SLQYYDcyx8Kkwv7ZYNaE-17" value="Channel_ID" style="shape=partialRectangle;connectable=0;fillColor=none;top=0;left=0;bottom=0;right=0;align=left;spacingLeft=2;overflow=hidden;fontSize=11;" vertex="1" parent="SLQYYDcyx8Kkwv7ZYNaE-15">
          <mxGeometry x="36" width="189" height="49" as="geometry">
            <mxRectangle width="189" height="49" as="alternateBounds" />
          </mxGeometry>
        </mxCell>
        <mxCell id="SLQYYDcyx8Kkwv7ZYNaE-18" value="PK" style="shape=partialRectangle;connectable=0;fillColor=none;top=0;left=0;bottom=0;right=0;align=left;spacingLeft=2;overflow=hidden;fontSize=11;" vertex="1" parent="SLQYYDcyx8Kkwv7ZYNaE-15">
          <mxGeometry x="225" width="22" height="49" as="geometry">
            <mxRectangle width="22" height="49" as="alternateBounds" />
          </mxGeometry>
        </mxCell>
        <mxCell id="SLQYYDcyx8Kkwv7ZYNaE-19" style="shape=tableRow;horizontal=0;startSize=0;swimlaneHead=0;swimlaneBody=0;fillColor=none;collapsible=0;dropTarget=0;points=[[0,0.5],[1,0.5]];portConstraint=eastwest;top=0;left=0;right=0;bottom=0;" vertex="1" parent="SLQYYDcyx8Kkwv7ZYNaE-14">
          <mxGeometry y="74" width="247" height="49" as="geometry" />
        </mxCell>
        <mxCell id="SLQYYDcyx8Kkwv7ZYNaE-20" value="string" style="shape=partialRectangle;connectable=0;fillColor=none;top=0;left=0;bottom=0;right=0;align=left;spacingLeft=2;overflow=hidden;fontSize=11;" vertex="1" parent="SLQYYDcyx8Kkwv7ZYNaE-19">
          <mxGeometry width="36" height="49" as="geometry">
            <mxRectangle width="36" height="49" as="alternateBounds" />
          </mxGeometry>
        </mxCell>
        <mxCell id="SLQYYDcyx8Kkwv7ZYNaE-21" value="Channel_Name" style="shape=partialRectangle;connectable=0;fillColor=none;top=0;left=0;bottom=0;right=0;align=left;spacingLeft=2;overflow=hidden;fontSize=11;" vertex="1" parent="SLQYYDcyx8Kkwv7ZYNaE-19">
          <mxGeometry x="36" width="189" height="49" as="geometry">
            <mxRectangle width="189" height="49" as="alternateBounds" />
          </mxGeometry>
        </mxCell>
        <mxCell id="SLQYYDcyx8Kkwv7ZYNaE-22" value="" style="shape=partialRectangle;connectable=0;fillColor=none;top=0;left=0;bottom=0;right=0;align=left;spacingLeft=2;overflow=hidden;fontSize=11;" vertex="1" parent="SLQYYDcyx8Kkwv7ZYNaE-19">
          <mxGeometry x="225" width="22" height="49" as="geometry">
            <mxRectangle width="22" height="49" as="alternateBounds" />
          </mxGeometry>
        </mxCell>
        <mxCell id="SLQYYDcyx8Kkwv7ZYNaE-23" style="shape=tableRow;horizontal=0;startSize=0;swimlaneHead=0;swimlaneBody=0;fillColor=none;collapsible=0;dropTarget=0;points=[[0,0.5],[1,0.5]];portConstraint=eastwest;top=0;left=0;right=0;bottom=0;" vertex="1" parent="SLQYYDcyx8Kkwv7ZYNaE-14">
          <mxGeometry y="123" width="247" height="49" as="geometry" />
        </mxCell>
        <mxCell id="SLQYYDcyx8Kkwv7ZYNaE-24" value="date" style="shape=partialRectangle;connectable=0;fillColor=none;top=0;left=0;bottom=0;right=0;align=left;spacingLeft=2;overflow=hidden;fontSize=11;" vertex="1" parent="SLQYYDcyx8Kkwv7ZYNaE-23">
          <mxGeometry width="36" height="49" as="geometry">
            <mxRectangle width="36" height="49" as="alternateBounds" />
          </mxGeometry>
        </mxCell>
        <mxCell id="SLQYYDcyx8Kkwv7ZYNaE-25" value="Creation_Date" style="shape=partialRectangle;connectable=0;fillColor=none;top=0;left=0;bottom=0;right=0;align=left;spacingLeft=2;overflow=hidden;fontSize=11;" vertex="1" parent="SLQYYDcyx8Kkwv7ZYNaE-23">
          <mxGeometry x="36" width="189" height="49" as="geometry">
            <mxRectangle width="189" height="49" as="alternateBounds" />
          </mxGeometry>
        </mxCell>
        <mxCell id="SLQYYDcyx8Kkwv7ZYNaE-26" value="" style="shape=partialRectangle;connectable=0;fillColor=none;top=0;left=0;bottom=0;right=0;align=left;spacingLeft=2;overflow=hidden;fontSize=11;" vertex="1" parent="SLQYYDcyx8Kkwv7ZYNaE-23">
          <mxGeometry x="225" width="22" height="49" as="geometry">
            <mxRectangle width="22" height="49" as="alternateBounds" />
          </mxGeometry>
        </mxCell>
        <mxCell id="SLQYYDcyx8Kkwv7ZYNaE-27" value="VIDEO" style="shape=table;startSize=25;container=1;collapsible=0;childLayout=tableLayout;fixedRows=1;rowLines=1;fontStyle=1;align=center;resizeLast=1;" vertex="1" parent="1">
          <mxGeometry x="1057" y="567" width="229" height="214" as="geometry" />
        </mxCell>
        <mxCell id="SLQYYDcyx8Kkwv7ZYNaE-28" style="shape=tableRow;horizontal=0;startSize=0;swimlaneHead=0;swimlaneBody=0;fillColor=none;collapsible=0;dropTarget=0;points=[[0,0.5],[1,0.5]];portConstraint=eastwest;top=0;left=0;right=0;bottom=0;" vertex="1" parent="SLQYYDcyx8Kkwv7ZYNaE-27">
          <mxGeometry y="25" width="229" height="47" as="geometry" />
        </mxCell>
        <mxCell id="SLQYYDcyx8Kkwv7ZYNaE-29" value="int" style="shape=partialRectangle;connectable=0;fillColor=none;top=0;left=0;bottom=0;right=0;align=left;spacingLeft=2;overflow=hidden;fontSize=11;" vertex="1" parent="SLQYYDcyx8Kkwv7ZYNaE-28">
          <mxGeometry width="36" height="47" as="geometry">
            <mxRectangle width="36" height="47" as="alternateBounds" />
          </mxGeometry>
        </mxCell>
        <mxCell id="SLQYYDcyx8Kkwv7ZYNaE-30" value="Video_ID" style="shape=partialRectangle;connectable=0;fillColor=none;top=0;left=0;bottom=0;right=0;align=left;spacingLeft=2;overflow=hidden;fontSize=11;" vertex="1" parent="SLQYYDcyx8Kkwv7ZYNaE-28">
          <mxGeometry x="36" width="171" height="47" as="geometry">
            <mxRectangle width="171" height="47" as="alternateBounds" />
          </mxGeometry>
        </mxCell>
        <mxCell id="SLQYYDcyx8Kkwv7ZYNaE-31" value="PK" style="shape=partialRectangle;connectable=0;fillColor=none;top=0;left=0;bottom=0;right=0;align=left;spacingLeft=2;overflow=hidden;fontSize=11;" vertex="1" parent="SLQYYDcyx8Kkwv7ZYNaE-28">
          <mxGeometry x="207" width="22" height="47" as="geometry">
            <mxRectangle width="22" height="47" as="alternateBounds" />
          </mxGeometry>
        </mxCell>
        <mxCell id="SLQYYDcyx8Kkwv7ZYNaE-32" style="shape=tableRow;horizontal=0;startSize=0;swimlaneHead=0;swimlaneBody=0;fillColor=none;collapsible=0;dropTarget=0;points=[[0,0.5],[1,0.5]];portConstraint=eastwest;top=0;left=0;right=0;bottom=0;" vertex="1" parent="SLQYYDcyx8Kkwv7ZYNaE-27">
          <mxGeometry y="72" width="229" height="47" as="geometry" />
        </mxCell>
        <mxCell id="SLQYYDcyx8Kkwv7ZYNaE-33" value="string" style="shape=partialRectangle;connectable=0;fillColor=none;top=0;left=0;bottom=0;right=0;align=left;spacingLeft=2;overflow=hidden;fontSize=11;" vertex="1" parent="SLQYYDcyx8Kkwv7ZYNaE-32">
          <mxGeometry width="36" height="47" as="geometry">
            <mxRectangle width="36" height="47" as="alternateBounds" />
          </mxGeometry>
        </mxCell>
        <mxCell id="SLQYYDcyx8Kkwv7ZYNaE-34" value="Title" style="shape=partialRectangle;connectable=0;fillColor=none;top=0;left=0;bottom=0;right=0;align=left;spacingLeft=2;overflow=hidden;fontSize=11;" vertex="1" parent="SLQYYDcyx8Kkwv7ZYNaE-32">
          <mxGeometry x="36" width="171" height="47" as="geometry">
            <mxRectangle width="171" height="47" as="alternateBounds" />
          </mxGeometry>
        </mxCell>
        <mxCell id="SLQYYDcyx8Kkwv7ZYNaE-35" value="" style="shape=partialRectangle;connectable=0;fillColor=none;top=0;left=0;bottom=0;right=0;align=left;spacingLeft=2;overflow=hidden;fontSize=11;" vertex="1" parent="SLQYYDcyx8Kkwv7ZYNaE-32">
          <mxGeometry x="207" width="22" height="47" as="geometry">
            <mxRectangle width="22" height="47" as="alternateBounds" />
          </mxGeometry>
        </mxCell>
        <mxCell id="SLQYYDcyx8Kkwv7ZYNaE-36" style="shape=tableRow;horizontal=0;startSize=0;swimlaneHead=0;swimlaneBody=0;fillColor=none;collapsible=0;dropTarget=0;points=[[0,0.5],[1,0.5]];portConstraint=eastwest;top=0;left=0;right=0;bottom=0;" vertex="1" parent="SLQYYDcyx8Kkwv7ZYNaE-27">
          <mxGeometry y="119" width="229" height="47" as="geometry" />
        </mxCell>
        <mxCell id="SLQYYDcyx8Kkwv7ZYNaE-37" value="int" style="shape=partialRectangle;connectable=0;fillColor=none;top=0;left=0;bottom=0;right=0;align=left;spacingLeft=2;overflow=hidden;fontSize=11;" vertex="1" parent="SLQYYDcyx8Kkwv7ZYNaE-36">
          <mxGeometry width="36" height="47" as="geometry">
            <mxRectangle width="36" height="47" as="alternateBounds" />
          </mxGeometry>
        </mxCell>
        <mxCell id="SLQYYDcyx8Kkwv7ZYNaE-38" value="Duration" style="shape=partialRectangle;connectable=0;fillColor=none;top=0;left=0;bottom=0;right=0;align=left;spacingLeft=2;overflow=hidden;fontSize=11;" vertex="1" parent="SLQYYDcyx8Kkwv7ZYNaE-36">
          <mxGeometry x="36" width="171" height="47" as="geometry">
            <mxRectangle width="171" height="47" as="alternateBounds" />
          </mxGeometry>
        </mxCell>
        <mxCell id="SLQYYDcyx8Kkwv7ZYNaE-39" value="" style="shape=partialRectangle;connectable=0;fillColor=none;top=0;left=0;bottom=0;right=0;align=left;spacingLeft=2;overflow=hidden;fontSize=11;" vertex="1" parent="SLQYYDcyx8Kkwv7ZYNaE-36">
          <mxGeometry x="207" width="22" height="47" as="geometry">
            <mxRectangle width="22" height="47" as="alternateBounds" />
          </mxGeometry>
        </mxCell>
        <mxCell id="SLQYYDcyx8Kkwv7ZYNaE-40" style="shape=tableRow;horizontal=0;startSize=0;swimlaneHead=0;swimlaneBody=0;fillColor=none;collapsible=0;dropTarget=0;points=[[0,0.5],[1,0.5]];portConstraint=eastwest;top=0;left=0;right=0;bottom=0;" vertex="1" parent="SLQYYDcyx8Kkwv7ZYNaE-27">
          <mxGeometry y="166" width="229" height="47" as="geometry" />
        </mxCell>
        <mxCell id="SLQYYDcyx8Kkwv7ZYNaE-41" value="date" style="shape=partialRectangle;connectable=0;fillColor=none;top=0;left=0;bottom=0;right=0;align=left;spacingLeft=2;overflow=hidden;fontSize=11;" vertex="1" parent="SLQYYDcyx8Kkwv7ZYNaE-40">
          <mxGeometry width="36" height="47" as="geometry">
            <mxRectangle width="36" height="47" as="alternateBounds" />
          </mxGeometry>
        </mxCell>
        <mxCell id="SLQYYDcyx8Kkwv7ZYNaE-42" value="Upload_Date" style="shape=partialRectangle;connectable=0;fillColor=none;top=0;left=0;bottom=0;right=0;align=left;spacingLeft=2;overflow=hidden;fontSize=11;" vertex="1" parent="SLQYYDcyx8Kkwv7ZYNaE-40">
          <mxGeometry x="36" width="171" height="47" as="geometry">
            <mxRectangle width="171" height="47" as="alternateBounds" />
          </mxGeometry>
        </mxCell>
        <mxCell id="SLQYYDcyx8Kkwv7ZYNaE-43" value="" style="shape=partialRectangle;connectable=0;fillColor=none;top=0;left=0;bottom=0;right=0;align=left;spacingLeft=2;overflow=hidden;fontSize=11;" vertex="1" parent="SLQYYDcyx8Kkwv7ZYNaE-40">
          <mxGeometry x="207" width="22" height="47" as="geometry">
            <mxRectangle width="22" height="47" as="alternateBounds" />
          </mxGeometry>
        </mxCell>
        <mxCell id="SLQYYDcyx8Kkwv7ZYNaE-44" value="SUBSCRIPTION" style="shape=table;startSize=25;container=1;collapsible=0;childLayout=tableLayout;fixedRows=1;rowLines=1;fontStyle=1;align=center;resizeLast=1;" vertex="1" parent="1">
          <mxGeometry x="299" y="589" width="211" height="172" as="geometry" />
        </mxCell>
        <mxCell id="SLQYYDcyx8Kkwv7ZYNaE-45" style="shape=tableRow;horizontal=0;startSize=0;swimlaneHead=0;swimlaneBody=0;fillColor=none;collapsible=0;dropTarget=0;points=[[0,0.5],[1,0.5]];portConstraint=eastwest;top=0;left=0;right=0;bottom=0;" vertex="1" parent="SLQYYDcyx8Kkwv7ZYNaE-44">
          <mxGeometry y="25" width="211" height="49" as="geometry" />
        </mxCell>
        <mxCell id="SLQYYDcyx8Kkwv7ZYNaE-46" value="int" style="shape=partialRectangle;connectable=0;fillColor=none;top=0;left=0;bottom=0;right=0;align=left;spacingLeft=2;overflow=hidden;fontSize=11;" vertex="1" parent="SLQYYDcyx8Kkwv7ZYNaE-45">
          <mxGeometry width="24" height="49" as="geometry">
            <mxRectangle width="24" height="49" as="alternateBounds" />
          </mxGeometry>
        </mxCell>
        <mxCell id="SLQYYDcyx8Kkwv7ZYNaE-47" value="User_ID" style="shape=partialRectangle;connectable=0;fillColor=none;top=0;left=0;bottom=0;right=0;align=left;spacingLeft=2;overflow=hidden;fontSize=11;" vertex="1" parent="SLQYYDcyx8Kkwv7ZYNaE-45">
          <mxGeometry x="24" width="165" height="49" as="geometry">
            <mxRectangle width="165" height="49" as="alternateBounds" />
          </mxGeometry>
        </mxCell>
        <mxCell id="SLQYYDcyx8Kkwv7ZYNaE-48" value="FK" style="shape=partialRectangle;connectable=0;fillColor=none;top=0;left=0;bottom=0;right=0;align=left;spacingLeft=2;overflow=hidden;fontSize=11;" vertex="1" parent="SLQYYDcyx8Kkwv7ZYNaE-45">
          <mxGeometry x="189" width="22" height="49" as="geometry">
            <mxRectangle width="22" height="49" as="alternateBounds" />
          </mxGeometry>
        </mxCell>
        <mxCell id="SLQYYDcyx8Kkwv7ZYNaE-49" style="shape=tableRow;horizontal=0;startSize=0;swimlaneHead=0;swimlaneBody=0;fillColor=none;collapsible=0;dropTarget=0;points=[[0,0.5],[1,0.5]];portConstraint=eastwest;top=0;left=0;right=0;bottom=0;" vertex="1" parent="SLQYYDcyx8Kkwv7ZYNaE-44">
          <mxGeometry y="74" width="211" height="49" as="geometry" />
        </mxCell>
        <mxCell id="SLQYYDcyx8Kkwv7ZYNaE-50" value="int" style="shape=partialRectangle;connectable=0;fillColor=none;top=0;left=0;bottom=0;right=0;align=left;spacingLeft=2;overflow=hidden;fontSize=11;" vertex="1" parent="SLQYYDcyx8Kkwv7ZYNaE-49">
          <mxGeometry width="24" height="49" as="geometry">
            <mxRectangle width="24" height="49" as="alternateBounds" />
          </mxGeometry>
        </mxCell>
        <mxCell id="SLQYYDcyx8Kkwv7ZYNaE-51" value="Channel_ID" style="shape=partialRectangle;connectable=0;fillColor=none;top=0;left=0;bottom=0;right=0;align=left;spacingLeft=2;overflow=hidden;fontSize=11;" vertex="1" parent="SLQYYDcyx8Kkwv7ZYNaE-49">
          <mxGeometry x="24" width="165" height="49" as="geometry">
            <mxRectangle width="165" height="49" as="alternateBounds" />
          </mxGeometry>
        </mxCell>
        <mxCell id="SLQYYDcyx8Kkwv7ZYNaE-52" value="FK" style="shape=partialRectangle;connectable=0;fillColor=none;top=0;left=0;bottom=0;right=0;align=left;spacingLeft=2;overflow=hidden;fontSize=11;" vertex="1" parent="SLQYYDcyx8Kkwv7ZYNaE-49">
          <mxGeometry x="189" width="22" height="49" as="geometry">
            <mxRectangle width="22" height="49" as="alternateBounds" />
          </mxGeometry>
        </mxCell>
        <mxCell id="SLQYYDcyx8Kkwv7ZYNaE-53" style="shape=tableRow;horizontal=0;startSize=0;swimlaneHead=0;swimlaneBody=0;fillColor=none;collapsible=0;dropTarget=0;points=[[0,0.5],[1,0.5]];portConstraint=eastwest;top=0;left=0;right=0;bottom=0;" vertex="1" parent="SLQYYDcyx8Kkwv7ZYNaE-44">
          <mxGeometry y="123" width="211" height="49" as="geometry" />
        </mxCell>
        <mxCell id="SLQYYDcyx8Kkwv7ZYNaE-54" value="date" style="shape=partialRectangle;connectable=0;fillColor=none;top=0;left=0;bottom=0;right=0;align=left;spacingLeft=2;overflow=hidden;fontSize=11;" vertex="1" parent="SLQYYDcyx8Kkwv7ZYNaE-53">
          <mxGeometry width="24" height="49" as="geometry">
            <mxRectangle width="24" height="49" as="alternateBounds" />
          </mxGeometry>
        </mxCell>
        <mxCell id="SLQYYDcyx8Kkwv7ZYNaE-55" value="Sub_Date" style="shape=partialRectangle;connectable=0;fillColor=none;top=0;left=0;bottom=0;right=0;align=left;spacingLeft=2;overflow=hidden;fontSize=11;" vertex="1" parent="SLQYYDcyx8Kkwv7ZYNaE-53">
          <mxGeometry x="24" width="165" height="49" as="geometry">
            <mxRectangle width="165" height="49" as="alternateBounds" />
          </mxGeometry>
        </mxCell>
        <mxCell id="SLQYYDcyx8Kkwv7ZYNaE-56" value="" style="shape=partialRectangle;connectable=0;fillColor=none;top=0;left=0;bottom=0;right=0;align=left;spacingLeft=2;overflow=hidden;fontSize=11;" vertex="1" parent="SLQYYDcyx8Kkwv7ZYNaE-53">
          <mxGeometry x="189" width="22" height="49" as="geometry">
            <mxRectangle width="22" height="49" as="alternateBounds" />
          </mxGeometry>
        </mxCell>
        <mxCell id="SLQYYDcyx8Kkwv7ZYNaE-57" value="COMMENT" style="shape=table;startSize=25;container=1;collapsible=0;childLayout=tableLayout;fixedRows=1;rowLines=1;fontStyle=1;align=center;resizeLast=1;" vertex="1" parent="1">
          <mxGeometry x="20" y="884" width="252" height="172" as="geometry" />
        </mxCell>
        <mxCell id="SLQYYDcyx8Kkwv7ZYNaE-58" style="shape=tableRow;horizontal=0;startSize=0;swimlaneHead=0;swimlaneBody=0;fillColor=none;collapsible=0;dropTarget=0;points=[[0,0.5],[1,0.5]];portConstraint=eastwest;top=0;left=0;right=0;bottom=0;" vertex="1" parent="SLQYYDcyx8Kkwv7ZYNaE-57">
          <mxGeometry y="25" width="252" height="49" as="geometry" />
        </mxCell>
        <mxCell id="SLQYYDcyx8Kkwv7ZYNaE-59" value="int" style="shape=partialRectangle;connectable=0;fillColor=none;top=0;left=0;bottom=0;right=0;align=left;spacingLeft=2;overflow=hidden;fontSize=11;" vertex="1" parent="SLQYYDcyx8Kkwv7ZYNaE-58">
          <mxGeometry width="48" height="49" as="geometry">
            <mxRectangle width="48" height="49" as="alternateBounds" />
          </mxGeometry>
        </mxCell>
        <mxCell id="SLQYYDcyx8Kkwv7ZYNaE-60" value="Comment_ID" style="shape=partialRectangle;connectable=0;fillColor=none;top=0;left=0;bottom=0;right=0;align=left;spacingLeft=2;overflow=hidden;fontSize=11;" vertex="1" parent="SLQYYDcyx8Kkwv7ZYNaE-58">
          <mxGeometry x="48" width="182" height="49" as="geometry">
            <mxRectangle width="182" height="49" as="alternateBounds" />
          </mxGeometry>
        </mxCell>
        <mxCell id="SLQYYDcyx8Kkwv7ZYNaE-61" value="PK" style="shape=partialRectangle;connectable=0;fillColor=none;top=0;left=0;bottom=0;right=0;align=left;spacingLeft=2;overflow=hidden;fontSize=11;" vertex="1" parent="SLQYYDcyx8Kkwv7ZYNaE-58">
          <mxGeometry x="230" width="22" height="49" as="geometry">
            <mxRectangle width="22" height="49" as="alternateBounds" />
          </mxGeometry>
        </mxCell>
        <mxCell id="SLQYYDcyx8Kkwv7ZYNaE-62" style="shape=tableRow;horizontal=0;startSize=0;swimlaneHead=0;swimlaneBody=0;fillColor=none;collapsible=0;dropTarget=0;points=[[0,0.5],[1,0.5]];portConstraint=eastwest;top=0;left=0;right=0;bottom=0;" vertex="1" parent="SLQYYDcyx8Kkwv7ZYNaE-57">
          <mxGeometry y="74" width="252" height="49" as="geometry" />
        </mxCell>
        <mxCell id="SLQYYDcyx8Kkwv7ZYNaE-63" value="string" style="shape=partialRectangle;connectable=0;fillColor=none;top=0;left=0;bottom=0;right=0;align=left;spacingLeft=2;overflow=hidden;fontSize=11;" vertex="1" parent="SLQYYDcyx8Kkwv7ZYNaE-62">
          <mxGeometry width="48" height="49" as="geometry">
            <mxRectangle width="48" height="49" as="alternateBounds" />
          </mxGeometry>
        </mxCell>
        <mxCell id="SLQYYDcyx8Kkwv7ZYNaE-64" value="Text" style="shape=partialRectangle;connectable=0;fillColor=none;top=0;left=0;bottom=0;right=0;align=left;spacingLeft=2;overflow=hidden;fontSize=11;" vertex="1" parent="SLQYYDcyx8Kkwv7ZYNaE-62">
          <mxGeometry x="48" width="182" height="49" as="geometry">
            <mxRectangle width="182" height="49" as="alternateBounds" />
          </mxGeometry>
        </mxCell>
        <mxCell id="SLQYYDcyx8Kkwv7ZYNaE-65" value="" style="shape=partialRectangle;connectable=0;fillColor=none;top=0;left=0;bottom=0;right=0;align=left;spacingLeft=2;overflow=hidden;fontSize=11;" vertex="1" parent="SLQYYDcyx8Kkwv7ZYNaE-62">
          <mxGeometry x="230" width="22" height="49" as="geometry">
            <mxRectangle width="22" height="49" as="alternateBounds" />
          </mxGeometry>
        </mxCell>
        <mxCell id="SLQYYDcyx8Kkwv7ZYNaE-66" style="shape=tableRow;horizontal=0;startSize=0;swimlaneHead=0;swimlaneBody=0;fillColor=none;collapsible=0;dropTarget=0;points=[[0,0.5],[1,0.5]];portConstraint=eastwest;top=0;left=0;right=0;bottom=0;" vertex="1" parent="SLQYYDcyx8Kkwv7ZYNaE-57">
          <mxGeometry y="123" width="252" height="49" as="geometry" />
        </mxCell>
        <mxCell id="SLQYYDcyx8Kkwv7ZYNaE-67" value="datetime" style="shape=partialRectangle;connectable=0;fillColor=none;top=0;left=0;bottom=0;right=0;align=left;spacingLeft=2;overflow=hidden;fontSize=11;" vertex="1" parent="SLQYYDcyx8Kkwv7ZYNaE-66">
          <mxGeometry width="48" height="49" as="geometry">
            <mxRectangle width="48" height="49" as="alternateBounds" />
          </mxGeometry>
        </mxCell>
        <mxCell id="SLQYYDcyx8Kkwv7ZYNaE-68" value="Timestamp" style="shape=partialRectangle;connectable=0;fillColor=none;top=0;left=0;bottom=0;right=0;align=left;spacingLeft=2;overflow=hidden;fontSize=11;" vertex="1" parent="SLQYYDcyx8Kkwv7ZYNaE-66">
          <mxGeometry x="48" width="182" height="49" as="geometry">
            <mxRectangle width="182" height="49" as="alternateBounds" />
          </mxGeometry>
        </mxCell>
        <mxCell id="SLQYYDcyx8Kkwv7ZYNaE-69" value="" style="shape=partialRectangle;connectable=0;fillColor=none;top=0;left=0;bottom=0;right=0;align=left;spacingLeft=2;overflow=hidden;fontSize=11;" vertex="1" parent="SLQYYDcyx8Kkwv7ZYNaE-66">
          <mxGeometry x="230" width="22" height="49" as="geometry">
            <mxRectangle width="22" height="49" as="alternateBounds" />
          </mxGeometry>
        </mxCell>
        <mxCell id="SLQYYDcyx8Kkwv7ZYNaE-70" value="PLAYLIST" style="shape=table;startSize=25;container=1;collapsible=0;childLayout=tableLayout;fixedRows=1;rowLines=1;fontStyle=1;align=center;resizeLast=1;" vertex="1" parent="1">
          <mxGeometry x="706" y="610" width="211" height="129" as="geometry" />
        </mxCell>
        <mxCell id="SLQYYDcyx8Kkwv7ZYNaE-71" style="shape=tableRow;horizontal=0;startSize=0;swimlaneHead=0;swimlaneBody=0;fillColor=none;collapsible=0;dropTarget=0;points=[[0,0.5],[1,0.5]];portConstraint=eastwest;top=0;left=0;right=0;bottom=0;" vertex="1" parent="SLQYYDcyx8Kkwv7ZYNaE-70">
          <mxGeometry y="25" width="211" height="52" as="geometry" />
        </mxCell>
        <mxCell id="SLQYYDcyx8Kkwv7ZYNaE-72" value="int" style="shape=partialRectangle;connectable=0;fillColor=none;top=0;left=0;bottom=0;right=0;align=left;spacingLeft=2;overflow=hidden;fontSize=11;" vertex="1" parent="SLQYYDcyx8Kkwv7ZYNaE-71">
          <mxGeometry width="36" height="52" as="geometry">
            <mxRectangle width="36" height="52" as="alternateBounds" />
          </mxGeometry>
        </mxCell>
        <mxCell id="SLQYYDcyx8Kkwv7ZYNaE-73" value="Playlist_ID" style="shape=partialRectangle;connectable=0;fillColor=none;top=0;left=0;bottom=0;right=0;align=left;spacingLeft=2;overflow=hidden;fontSize=11;" vertex="1" parent="SLQYYDcyx8Kkwv7ZYNaE-71">
          <mxGeometry x="36" width="153" height="52" as="geometry">
            <mxRectangle width="153" height="52" as="alternateBounds" />
          </mxGeometry>
        </mxCell>
        <mxCell id="SLQYYDcyx8Kkwv7ZYNaE-74" value="PK" style="shape=partialRectangle;connectable=0;fillColor=none;top=0;left=0;bottom=0;right=0;align=left;spacingLeft=2;overflow=hidden;fontSize=11;" vertex="1" parent="SLQYYDcyx8Kkwv7ZYNaE-71">
          <mxGeometry x="189" width="22" height="52" as="geometry">
            <mxRectangle width="22" height="52" as="alternateBounds" />
          </mxGeometry>
        </mxCell>
        <mxCell id="SLQYYDcyx8Kkwv7ZYNaE-75" style="shape=tableRow;horizontal=0;startSize=0;swimlaneHead=0;swimlaneBody=0;fillColor=none;collapsible=0;dropTarget=0;points=[[0,0.5],[1,0.5]];portConstraint=eastwest;top=0;left=0;right=0;bottom=0;" vertex="1" parent="SLQYYDcyx8Kkwv7ZYNaE-70">
          <mxGeometry y="77" width="211" height="52" as="geometry" />
        </mxCell>
        <mxCell id="SLQYYDcyx8Kkwv7ZYNaE-76" value="string" style="shape=partialRectangle;connectable=0;fillColor=none;top=0;left=0;bottom=0;right=0;align=left;spacingLeft=2;overflow=hidden;fontSize=11;" vertex="1" parent="SLQYYDcyx8Kkwv7ZYNaE-75">
          <mxGeometry width="36" height="52" as="geometry">
            <mxRectangle width="36" height="52" as="alternateBounds" />
          </mxGeometry>
        </mxCell>
        <mxCell id="SLQYYDcyx8Kkwv7ZYNaE-77" value="Title" style="shape=partialRectangle;connectable=0;fillColor=none;top=0;left=0;bottom=0;right=0;align=left;spacingLeft=2;overflow=hidden;fontSize=11;" vertex="1" parent="SLQYYDcyx8Kkwv7ZYNaE-75">
          <mxGeometry x="36" width="153" height="52" as="geometry">
            <mxRectangle width="153" height="52" as="alternateBounds" />
          </mxGeometry>
        </mxCell>
        <mxCell id="SLQYYDcyx8Kkwv7ZYNaE-78" value="" style="shape=partialRectangle;connectable=0;fillColor=none;top=0;left=0;bottom=0;right=0;align=left;spacingLeft=2;overflow=hidden;fontSize=11;" vertex="1" parent="SLQYYDcyx8Kkwv7ZYNaE-75">
          <mxGeometry x="189" width="22" height="52" as="geometry">
            <mxRectangle width="22" height="52" as="alternateBounds" />
          </mxGeometry>
        </mxCell>
        <mxCell id="SLQYYDcyx8Kkwv7ZYNaE-79" value="PLAYLIST_ITEM" style="shape=table;startSize=25;container=1;collapsible=0;childLayout=tableLayout;fixedRows=1;rowLines=1;fontStyle=1;align=center;resizeLast=1;" vertex="1" parent="1">
          <mxGeometry x="758" y="884" width="201" height="172" as="geometry" />
        </mxCell>
        <mxCell id="SLQYYDcyx8Kkwv7ZYNaE-80" style="shape=tableRow;horizontal=0;startSize=0;swimlaneHead=0;swimlaneBody=0;fillColor=none;collapsible=0;dropTarget=0;points=[[0,0.5],[1,0.5]];portConstraint=eastwest;top=0;left=0;right=0;bottom=0;" vertex="1" parent="SLQYYDcyx8Kkwv7ZYNaE-79">
          <mxGeometry y="25" width="201" height="49" as="geometry" />
        </mxCell>
        <mxCell id="SLQYYDcyx8Kkwv7ZYNaE-81" value="int" style="shape=partialRectangle;connectable=0;fillColor=none;top=0;left=0;bottom=0;right=0;align=left;spacingLeft=2;overflow=hidden;fontSize=11;" vertex="1" parent="SLQYYDcyx8Kkwv7ZYNaE-80">
          <mxGeometry width="18" height="49" as="geometry">
            <mxRectangle width="18" height="49" as="alternateBounds" />
          </mxGeometry>
        </mxCell>
        <mxCell id="SLQYYDcyx8Kkwv7ZYNaE-82" value="Playlist_ID" style="shape=partialRectangle;connectable=0;fillColor=none;top=0;left=0;bottom=0;right=0;align=left;spacingLeft=2;overflow=hidden;fontSize=11;" vertex="1" parent="SLQYYDcyx8Kkwv7ZYNaE-80">
          <mxGeometry x="18" width="161" height="49" as="geometry">
            <mxRectangle width="161" height="49" as="alternateBounds" />
          </mxGeometry>
        </mxCell>
        <mxCell id="SLQYYDcyx8Kkwv7ZYNaE-83" value="FK" style="shape=partialRectangle;connectable=0;fillColor=none;top=0;left=0;bottom=0;right=0;align=left;spacingLeft=2;overflow=hidden;fontSize=11;" vertex="1" parent="SLQYYDcyx8Kkwv7ZYNaE-80">
          <mxGeometry x="179" width="22" height="49" as="geometry">
            <mxRectangle width="22" height="49" as="alternateBounds" />
          </mxGeometry>
        </mxCell>
        <mxCell id="SLQYYDcyx8Kkwv7ZYNaE-84" style="shape=tableRow;horizontal=0;startSize=0;swimlaneHead=0;swimlaneBody=0;fillColor=none;collapsible=0;dropTarget=0;points=[[0,0.5],[1,0.5]];portConstraint=eastwest;top=0;left=0;right=0;bottom=0;" vertex="1" parent="SLQYYDcyx8Kkwv7ZYNaE-79">
          <mxGeometry y="74" width="201" height="49" as="geometry" />
        </mxCell>
        <mxCell id="SLQYYDcyx8Kkwv7ZYNaE-85" value="int" style="shape=partialRectangle;connectable=0;fillColor=none;top=0;left=0;bottom=0;right=0;align=left;spacingLeft=2;overflow=hidden;fontSize=11;" vertex="1" parent="SLQYYDcyx8Kkwv7ZYNaE-84">
          <mxGeometry width="18" height="49" as="geometry">
            <mxRectangle width="18" height="49" as="alternateBounds" />
          </mxGeometry>
        </mxCell>
        <mxCell id="SLQYYDcyx8Kkwv7ZYNaE-86" value="Video_ID" style="shape=partialRectangle;connectable=0;fillColor=none;top=0;left=0;bottom=0;right=0;align=left;spacingLeft=2;overflow=hidden;fontSize=11;" vertex="1" parent="SLQYYDcyx8Kkwv7ZYNaE-84">
          <mxGeometry x="18" width="161" height="49" as="geometry">
            <mxRectangle width="161" height="49" as="alternateBounds" />
          </mxGeometry>
        </mxCell>
        <mxCell id="SLQYYDcyx8Kkwv7ZYNaE-87" value="FK" style="shape=partialRectangle;connectable=0;fillColor=none;top=0;left=0;bottom=0;right=0;align=left;spacingLeft=2;overflow=hidden;fontSize=11;" vertex="1" parent="SLQYYDcyx8Kkwv7ZYNaE-84">
          <mxGeometry x="179" width="22" height="49" as="geometry">
            <mxRectangle width="22" height="49" as="alternateBounds" />
          </mxGeometry>
        </mxCell>
        <mxCell id="SLQYYDcyx8Kkwv7ZYNaE-88" style="shape=tableRow;horizontal=0;startSize=0;swimlaneHead=0;swimlaneBody=0;fillColor=none;collapsible=0;dropTarget=0;points=[[0,0.5],[1,0.5]];portConstraint=eastwest;top=0;left=0;right=0;bottom=0;" vertex="1" parent="SLQYYDcyx8Kkwv7ZYNaE-79">
          <mxGeometry y="123" width="201" height="49" as="geometry" />
        </mxCell>
        <mxCell id="SLQYYDcyx8Kkwv7ZYNaE-89" value="int" style="shape=partialRectangle;connectable=0;fillColor=none;top=0;left=0;bottom=0;right=0;align=left;spacingLeft=2;overflow=hidden;fontSize=11;" vertex="1" parent="SLQYYDcyx8Kkwv7ZYNaE-88">
          <mxGeometry width="18" height="49" as="geometry">
            <mxRectangle width="18" height="49" as="alternateBounds" />
          </mxGeometry>
        </mxCell>
        <mxCell id="SLQYYDcyx8Kkwv7ZYNaE-90" value="Order_Index" style="shape=partialRectangle;connectable=0;fillColor=none;top=0;left=0;bottom=0;right=0;align=left;spacingLeft=2;overflow=hidden;fontSize=11;" vertex="1" parent="SLQYYDcyx8Kkwv7ZYNaE-88">
          <mxGeometry x="18" width="161" height="49" as="geometry">
            <mxRectangle width="161" height="49" as="alternateBounds" />
          </mxGeometry>
        </mxCell>
        <mxCell id="SLQYYDcyx8Kkwv7ZYNaE-91" value="" style="shape=partialRectangle;connectable=0;fillColor=none;top=0;left=0;bottom=0;right=0;align=left;spacingLeft=2;overflow=hidden;fontSize=11;" vertex="1" parent="SLQYYDcyx8Kkwv7ZYNaE-88">
          <mxGeometry x="179" width="22" height="49" as="geometry">
            <mxRectangle width="22" height="49" as="alternateBounds" />
          </mxGeometry>
        </mxCell>
        <mxCell id="SLQYYDcyx8Kkwv7ZYNaE-92" value="VIEW" style="shape=table;startSize=25;container=1;collapsible=0;childLayout=tableLayout;fixedRows=1;rowLines=1;fontStyle=1;align=center;resizeLast=1;" vertex="1" parent="1">
          <mxGeometry x="1203" y="884" width="235" height="172" as="geometry" />
        </mxCell>
        <mxCell id="SLQYYDcyx8Kkwv7ZYNaE-93" style="shape=tableRow;horizontal=0;startSize=0;swimlaneHead=0;swimlaneBody=0;fillColor=none;collapsible=0;dropTarget=0;points=[[0,0.5],[1,0.5]];portConstraint=eastwest;top=0;left=0;right=0;bottom=0;" vertex="1" parent="SLQYYDcyx8Kkwv7ZYNaE-92">
          <mxGeometry y="25" width="235" height="49" as="geometry" />
        </mxCell>
        <mxCell id="SLQYYDcyx8Kkwv7ZYNaE-94" value="int" style="shape=partialRectangle;connectable=0;fillColor=none;top=0;left=0;bottom=0;right=0;align=left;spacingLeft=2;overflow=hidden;fontSize=11;" vertex="1" parent="SLQYYDcyx8Kkwv7ZYNaE-93">
          <mxGeometry width="48" height="49" as="geometry">
            <mxRectangle width="48" height="49" as="alternateBounds" />
          </mxGeometry>
        </mxCell>
        <mxCell id="SLQYYDcyx8Kkwv7ZYNaE-95" value="User_ID" style="shape=partialRectangle;connectable=0;fillColor=none;top=0;left=0;bottom=0;right=0;align=left;spacingLeft=2;overflow=hidden;fontSize=11;" vertex="1" parent="SLQYYDcyx8Kkwv7ZYNaE-93">
          <mxGeometry x="48" width="165" height="49" as="geometry">
            <mxRectangle width="165" height="49" as="alternateBounds" />
          </mxGeometry>
        </mxCell>
        <mxCell id="SLQYYDcyx8Kkwv7ZYNaE-96" value="FK" style="shape=partialRectangle;connectable=0;fillColor=none;top=0;left=0;bottom=0;right=0;align=left;spacingLeft=2;overflow=hidden;fontSize=11;" vertex="1" parent="SLQYYDcyx8Kkwv7ZYNaE-93">
          <mxGeometry x="213" width="22" height="49" as="geometry">
            <mxRectangle width="22" height="49" as="alternateBounds" />
          </mxGeometry>
        </mxCell>
        <mxCell id="SLQYYDcyx8Kkwv7ZYNaE-97" style="shape=tableRow;horizontal=0;startSize=0;swimlaneHead=0;swimlaneBody=0;fillColor=none;collapsible=0;dropTarget=0;points=[[0,0.5],[1,0.5]];portConstraint=eastwest;top=0;left=0;right=0;bottom=0;" vertex="1" parent="SLQYYDcyx8Kkwv7ZYNaE-92">
          <mxGeometry y="74" width="235" height="49" as="geometry" />
        </mxCell>
        <mxCell id="SLQYYDcyx8Kkwv7ZYNaE-98" value="int" style="shape=partialRectangle;connectable=0;fillColor=none;top=0;left=0;bottom=0;right=0;align=left;spacingLeft=2;overflow=hidden;fontSize=11;" vertex="1" parent="SLQYYDcyx8Kkwv7ZYNaE-97">
          <mxGeometry width="48" height="49" as="geometry">
            <mxRectangle width="48" height="49" as="alternateBounds" />
          </mxGeometry>
        </mxCell>
        <mxCell id="SLQYYDcyx8Kkwv7ZYNaE-99" value="Video_ID" style="shape=partialRectangle;connectable=0;fillColor=none;top=0;left=0;bottom=0;right=0;align=left;spacingLeft=2;overflow=hidden;fontSize=11;" vertex="1" parent="SLQYYDcyx8Kkwv7ZYNaE-97">
          <mxGeometry x="48" width="165" height="49" as="geometry">
            <mxRectangle width="165" height="49" as="alternateBounds" />
          </mxGeometry>
        </mxCell>
        <mxCell id="SLQYYDcyx8Kkwv7ZYNaE-100" value="FK" style="shape=partialRectangle;connectable=0;fillColor=none;top=0;left=0;bottom=0;right=0;align=left;spacingLeft=2;overflow=hidden;fontSize=11;" vertex="1" parent="SLQYYDcyx8Kkwv7ZYNaE-97">
          <mxGeometry x="213" width="22" height="49" as="geometry">
            <mxRectangle width="22" height="49" as="alternateBounds" />
          </mxGeometry>
        </mxCell>
        <mxCell id="SLQYYDcyx8Kkwv7ZYNaE-101" style="shape=tableRow;horizontal=0;startSize=0;swimlaneHead=0;swimlaneBody=0;fillColor=none;collapsible=0;dropTarget=0;points=[[0,0.5],[1,0.5]];portConstraint=eastwest;top=0;left=0;right=0;bottom=0;" vertex="1" parent="SLQYYDcyx8Kkwv7ZYNaE-92">
          <mxGeometry y="123" width="235" height="49" as="geometry" />
        </mxCell>
        <mxCell id="SLQYYDcyx8Kkwv7ZYNaE-102" value="datetime" style="shape=partialRectangle;connectable=0;fillColor=none;top=0;left=0;bottom=0;right=0;align=left;spacingLeft=2;overflow=hidden;fontSize=11;" vertex="1" parent="SLQYYDcyx8Kkwv7ZYNaE-101">
          <mxGeometry width="48" height="49" as="geometry">
            <mxRectangle width="48" height="49" as="alternateBounds" />
          </mxGeometry>
        </mxCell>
        <mxCell id="SLQYYDcyx8Kkwv7ZYNaE-103" value="Timestamp" style="shape=partialRectangle;connectable=0;fillColor=none;top=0;left=0;bottom=0;right=0;align=left;spacingLeft=2;overflow=hidden;fontSize=11;" vertex="1" parent="SLQYYDcyx8Kkwv7ZYNaE-101">
          <mxGeometry x="48" width="165" height="49" as="geometry">
            <mxRectangle width="165" height="49" as="alternateBounds" />
          </mxGeometry>
        </mxCell>
        <mxCell id="SLQYYDcyx8Kkwv7ZYNaE-104" value="" style="shape=partialRectangle;connectable=0;fillColor=none;top=0;left=0;bottom=0;right=0;align=left;spacingLeft=2;overflow=hidden;fontSize=11;" vertex="1" parent="SLQYYDcyx8Kkwv7ZYNaE-101">
          <mxGeometry x="213" width="22" height="49" as="geometry">
            <mxRectangle width="22" height="49" as="alternateBounds" />
          </mxGeometry>
        </mxCell>
        <mxCell id="SLQYYDcyx8Kkwv7ZYNaE-105" value="AD_PLACEMENT" style="shape=table;startSize=25;container=1;collapsible=0;childLayout=tableLayout;fixedRows=1;rowLines=1;fontStyle=1;align=center;resizeLast=1;" vertex="1" parent="1">
          <mxGeometry x="1578" y="884" width="254" height="172" as="geometry" />
        </mxCell>
        <mxCell id="SLQYYDcyx8Kkwv7ZYNaE-106" style="shape=tableRow;horizontal=0;startSize=0;swimlaneHead=0;swimlaneBody=0;fillColor=none;collapsible=0;dropTarget=0;points=[[0,0.5],[1,0.5]];portConstraint=eastwest;top=0;left=0;right=0;bottom=0;" vertex="1" parent="SLQYYDcyx8Kkwv7ZYNaE-105">
          <mxGeometry y="25" width="254" height="49" as="geometry" />
        </mxCell>
        <mxCell id="SLQYYDcyx8Kkwv7ZYNaE-107" value="int" style="shape=partialRectangle;connectable=0;fillColor=none;top=0;left=0;bottom=0;right=0;align=left;spacingLeft=2;overflow=hidden;fontSize=11;" vertex="1" parent="SLQYYDcyx8Kkwv7ZYNaE-106">
          <mxGeometry width="36" height="49" as="geometry">
            <mxRectangle width="36" height="49" as="alternateBounds" />
          </mxGeometry>
        </mxCell>
        <mxCell id="SLQYYDcyx8Kkwv7ZYNaE-108" value="Ad_ID" style="shape=partialRectangle;connectable=0;fillColor=none;top=0;left=0;bottom=0;right=0;align=left;spacingLeft=2;overflow=hidden;fontSize=11;" vertex="1" parent="SLQYYDcyx8Kkwv7ZYNaE-106">
          <mxGeometry x="36" width="196" height="49" as="geometry">
            <mxRectangle width="196" height="49" as="alternateBounds" />
          </mxGeometry>
        </mxCell>
        <mxCell id="SLQYYDcyx8Kkwv7ZYNaE-109" value="FK" style="shape=partialRectangle;connectable=0;fillColor=none;top=0;left=0;bottom=0;right=0;align=left;spacingLeft=2;overflow=hidden;fontSize=11;" vertex="1" parent="SLQYYDcyx8Kkwv7ZYNaE-106">
          <mxGeometry x="232" width="22" height="49" as="geometry">
            <mxRectangle width="22" height="49" as="alternateBounds" />
          </mxGeometry>
        </mxCell>
        <mxCell id="SLQYYDcyx8Kkwv7ZYNaE-110" style="shape=tableRow;horizontal=0;startSize=0;swimlaneHead=0;swimlaneBody=0;fillColor=none;collapsible=0;dropTarget=0;points=[[0,0.5],[1,0.5]];portConstraint=eastwest;top=0;left=0;right=0;bottom=0;" vertex="1" parent="SLQYYDcyx8Kkwv7ZYNaE-105">
          <mxGeometry y="74" width="254" height="49" as="geometry" />
        </mxCell>
        <mxCell id="SLQYYDcyx8Kkwv7ZYNaE-111" value="int" style="shape=partialRectangle;connectable=0;fillColor=none;top=0;left=0;bottom=0;right=0;align=left;spacingLeft=2;overflow=hidden;fontSize=11;" vertex="1" parent="SLQYYDcyx8Kkwv7ZYNaE-110">
          <mxGeometry width="36" height="49" as="geometry">
            <mxRectangle width="36" height="49" as="alternateBounds" />
          </mxGeometry>
        </mxCell>
        <mxCell id="SLQYYDcyx8Kkwv7ZYNaE-112" value="Video_ID" style="shape=partialRectangle;connectable=0;fillColor=none;top=0;left=0;bottom=0;right=0;align=left;spacingLeft=2;overflow=hidden;fontSize=11;" vertex="1" parent="SLQYYDcyx8Kkwv7ZYNaE-110">
          <mxGeometry x="36" width="196" height="49" as="geometry">
            <mxRectangle width="196" height="49" as="alternateBounds" />
          </mxGeometry>
        </mxCell>
        <mxCell id="SLQYYDcyx8Kkwv7ZYNaE-113" value="FK" style="shape=partialRectangle;connectable=0;fillColor=none;top=0;left=0;bottom=0;right=0;align=left;spacingLeft=2;overflow=hidden;fontSize=11;" vertex="1" parent="SLQYYDcyx8Kkwv7ZYNaE-110">
          <mxGeometry x="232" width="22" height="49" as="geometry">
            <mxRectangle width="22" height="49" as="alternateBounds" />
          </mxGeometry>
        </mxCell>
        <mxCell id="SLQYYDcyx8Kkwv7ZYNaE-114" style="shape=tableRow;horizontal=0;startSize=0;swimlaneHead=0;swimlaneBody=0;fillColor=none;collapsible=0;dropTarget=0;points=[[0,0.5],[1,0.5]];portConstraint=eastwest;top=0;left=0;right=0;bottom=0;" vertex="1" parent="SLQYYDcyx8Kkwv7ZYNaE-105">
          <mxGeometry y="123" width="254" height="49" as="geometry" />
        </mxCell>
        <mxCell id="SLQYYDcyx8Kkwv7ZYNaE-115" value="string" style="shape=partialRectangle;connectable=0;fillColor=none;top=0;left=0;bottom=0;right=0;align=left;spacingLeft=2;overflow=hidden;fontSize=11;" vertex="1" parent="SLQYYDcyx8Kkwv7ZYNaE-114">
          <mxGeometry width="36" height="49" as="geometry">
            <mxRectangle width="36" height="49" as="alternateBounds" />
          </mxGeometry>
        </mxCell>
        <mxCell id="SLQYYDcyx8Kkwv7ZYNaE-116" value="Placement_Type" style="shape=partialRectangle;connectable=0;fillColor=none;top=0;left=0;bottom=0;right=0;align=left;spacingLeft=2;overflow=hidden;fontSize=11;" vertex="1" parent="SLQYYDcyx8Kkwv7ZYNaE-114">
          <mxGeometry x="36" width="196" height="49" as="geometry">
            <mxRectangle width="196" height="49" as="alternateBounds" />
          </mxGeometry>
        </mxCell>
        <mxCell id="SLQYYDcyx8Kkwv7ZYNaE-117" value="" style="shape=partialRectangle;connectable=0;fillColor=none;top=0;left=0;bottom=0;right=0;align=left;spacingLeft=2;overflow=hidden;fontSize=11;" vertex="1" parent="SLQYYDcyx8Kkwv7ZYNaE-114">
          <mxGeometry x="232" width="22" height="49" as="geometry">
            <mxRectangle width="22" height="49" as="alternateBounds" />
          </mxGeometry>
        </mxCell>
        <mxCell id="SLQYYDcyx8Kkwv7ZYNaE-118" value="ADVERTISEMENT" style="shape=table;startSize=25;container=1;collapsible=0;childLayout=tableLayout;fixedRows=1;rowLines=1;fontStyle=1;align=center;resizeLast=1;" vertex="1" parent="1">
          <mxGeometry x="1643" y="610" width="199" height="129" as="geometry" />
        </mxCell>
        <mxCell id="SLQYYDcyx8Kkwv7ZYNaE-119" style="shape=tableRow;horizontal=0;startSize=0;swimlaneHead=0;swimlaneBody=0;fillColor=none;collapsible=0;dropTarget=0;points=[[0,0.5],[1,0.5]];portConstraint=eastwest;top=0;left=0;right=0;bottom=0;" vertex="1" parent="SLQYYDcyx8Kkwv7ZYNaE-118">
          <mxGeometry y="25" width="199" height="52" as="geometry" />
        </mxCell>
        <mxCell id="SLQYYDcyx8Kkwv7ZYNaE-120" value="int" style="shape=partialRectangle;connectable=0;fillColor=none;top=0;left=0;bottom=0;right=0;align=left;spacingLeft=2;overflow=hidden;fontSize=11;" vertex="1" parent="SLQYYDcyx8Kkwv7ZYNaE-119">
          <mxGeometry width="36" height="52" as="geometry">
            <mxRectangle width="36" height="52" as="alternateBounds" />
          </mxGeometry>
        </mxCell>
        <mxCell id="SLQYYDcyx8Kkwv7ZYNaE-121" value="Ad_ID" style="shape=partialRectangle;connectable=0;fillColor=none;top=0;left=0;bottom=0;right=0;align=left;spacingLeft=2;overflow=hidden;fontSize=11;" vertex="1" parent="SLQYYDcyx8Kkwv7ZYNaE-119">
          <mxGeometry x="36" width="141" height="52" as="geometry">
            <mxRectangle width="141" height="52" as="alternateBounds" />
          </mxGeometry>
        </mxCell>
        <mxCell id="SLQYYDcyx8Kkwv7ZYNaE-122" value="PK" style="shape=partialRectangle;connectable=0;fillColor=none;top=0;left=0;bottom=0;right=0;align=left;spacingLeft=2;overflow=hidden;fontSize=11;" vertex="1" parent="SLQYYDcyx8Kkwv7ZYNaE-119">
          <mxGeometry x="177" width="22" height="52" as="geometry">
            <mxRectangle width="22" height="52" as="alternateBounds" />
          </mxGeometry>
        </mxCell>
        <mxCell id="SLQYYDcyx8Kkwv7ZYNaE-123" style="shape=tableRow;horizontal=0;startSize=0;swimlaneHead=0;swimlaneBody=0;fillColor=none;collapsible=0;dropTarget=0;points=[[0,0.5],[1,0.5]];portConstraint=eastwest;top=0;left=0;right=0;bottom=0;" vertex="1" parent="SLQYYDcyx8Kkwv7ZYNaE-118">
          <mxGeometry y="77" width="199" height="52" as="geometry" />
        </mxCell>
        <mxCell id="SLQYYDcyx8Kkwv7ZYNaE-124" value="string" style="shape=partialRectangle;connectable=0;fillColor=none;top=0;left=0;bottom=0;right=0;align=left;spacingLeft=2;overflow=hidden;fontSize=11;" vertex="1" parent="SLQYYDcyx8Kkwv7ZYNaE-123">
          <mxGeometry width="36" height="52" as="geometry">
            <mxRectangle width="36" height="52" as="alternateBounds" />
          </mxGeometry>
        </mxCell>
        <mxCell id="SLQYYDcyx8Kkwv7ZYNaE-125" value="Ad_Type" style="shape=partialRectangle;connectable=0;fillColor=none;top=0;left=0;bottom=0;right=0;align=left;spacingLeft=2;overflow=hidden;fontSize=11;" vertex="1" parent="SLQYYDcyx8Kkwv7ZYNaE-123">
          <mxGeometry x="36" width="141" height="52" as="geometry">
            <mxRectangle width="141" height="52" as="alternateBounds" />
          </mxGeometry>
        </mxCell>
        <mxCell id="SLQYYDcyx8Kkwv7ZYNaE-126" value="" style="shape=partialRectangle;connectable=0;fillColor=none;top=0;left=0;bottom=0;right=0;align=left;spacingLeft=2;overflow=hidden;fontSize=11;" vertex="1" parent="SLQYYDcyx8Kkwv7ZYNaE-123">
          <mxGeometry x="177" width="22" height="52" as="geometry">
            <mxRectangle width="22" height="52" as="alternateBounds" />
          </mxGeometry>
        </mxCell>
        <mxCell id="SLQYYDcyx8Kkwv7ZYNaE-127" value="owns" style="curved=1;startArrow=ERmandOne;startSize=10;;endArrow=ERzeroToMany;endSize=10;;exitX=0.5;exitY=1;entryX=0.5;entryY=0;rounded=0;" edge="1" parent="1" source="SLQYYDcyx8Kkwv7ZYNaE-1" target="SLQYYDcyx8Kkwv7ZYNaE-14">
          <mxGeometry relative="1" as="geometry">
            <Array as="points" />
          </mxGeometry>
        </mxCell>
        <mxCell id="SLQYYDcyx8Kkwv7ZYNaE-128" value="uploads" style="curved=1;startArrow=ERmandOne;startSize=10;;endArrow=ERzeroToMany;endSize=10;;exitX=1;exitY=0.65;entryX=0.5;entryY=0;rounded=0;" edge="1" parent="1" source="SLQYYDcyx8Kkwv7ZYNaE-14" target="SLQYYDcyx8Kkwv7ZYNaE-27">
          <mxGeometry relative="1" as="geometry">
            <Array as="points">
              <mxPoint x="1172" y="516" />
            </Array>
          </mxGeometry>
        </mxCell>
        <mxCell id="SLQYYDcyx8Kkwv7ZYNaE-129" value="creates" style="curved=1;startArrow=ERoneToMany;startSize=10;;endArrow=ERzeroToMany;endSize=10;;exitX=0;exitY=0.86;entryX=0.2;entryY=0;rounded=0;" edge="1" parent="1" source="SLQYYDcyx8Kkwv7ZYNaE-1" target="SLQYYDcyx8Kkwv7ZYNaE-44">
          <mxGeometry relative="1" as="geometry">
            <Array as="points">
              <mxPoint x="289" y="242" />
              <mxPoint x="289" y="516" />
            </Array>
          </mxGeometry>
        </mxCell>
        <mxCell id="SLQYYDcyx8Kkwv7ZYNaE-130" value="is_subscribed_to" style="curved=1;startArrow=ERoneToMany;startSize=10;;endArrow=ERzeroToMany;endSize=10;;exitX=0.5;exitY=1;entryX=0.8;entryY=0;rounded=0;" edge="1" parent="1" source="SLQYYDcyx8Kkwv7ZYNaE-14" target="SLQYYDcyx8Kkwv7ZYNaE-44">
          <mxGeometry relative="1" as="geometry">
            <Array as="points">
              <mxPoint x="520" y="516" />
            </Array>
          </mxGeometry>
        </mxCell>
        <mxCell id="SLQYYDcyx8Kkwv7ZYNaE-131" value="receives" style="curved=1;startArrow=ERzeroToMany;startSize=10;;endArrow=ERzeroToMany;endSize=10;;exitX=0;exitY=0.58;entryX=0.44;entryY=0;rounded=0;" edge="1" parent="1" source="SLQYYDcyx8Kkwv7ZYNaE-27" target="SLQYYDcyx8Kkwv7ZYNaE-57">
          <mxGeometry relative="1" as="geometry">
            <Array as="points">
              <mxPoint x="120" y="832" />
            </Array>
          </mxGeometry>
        </mxCell>
        <mxCell id="SLQYYDcyx8Kkwv7ZYNaE-132" value="posts" style="curved=1;startArrow=ERoneToMany;startSize=10;;endArrow=ERzeroToMany;endSize=10;;exitX=0;exitY=0.74;entryX=0.56;entryY=0;rounded=0;" edge="1" parent="1" source="SLQYYDcyx8Kkwv7ZYNaE-1" target="SLQYYDcyx8Kkwv7ZYNaE-57">
          <mxGeometry relative="1" as="geometry">
            <Array as="points">
              <mxPoint x="172" y="242" />
              <mxPoint x="172" y="832" />
            </Array>
          </mxGeometry>
        </mxCell>
        <mxCell id="SLQYYDcyx8Kkwv7ZYNaE-133" value="curates" style="curved=1;startArrow=ERoneToMany;startSize=10;;endArrow=ERzeroToMany;endSize=10;;exitX=1;exitY=0.79;entryX=0.5;entryY=0;rounded=0;" edge="1" parent="1" source="SLQYYDcyx8Kkwv7ZYNaE-1" target="SLQYYDcyx8Kkwv7ZYNaE-70">
          <mxGeometry relative="1" as="geometry">
            <Array as="points">
              <mxPoint x="812" y="242" />
            </Array>
          </mxGeometry>
        </mxCell>
        <mxCell id="SLQYYDcyx8Kkwv7ZYNaE-134" value="contains" style="curved=1;startArrow=ERmandOne;startSize=10;;endArrow=ERzeroToMany;endSize=10;;exitX=0.5;exitY=1;entryX=0.35;entryY=0;rounded=0;" edge="1" parent="1" source="SLQYYDcyx8Kkwv7ZYNaE-70" target="SLQYYDcyx8Kkwv7ZYNaE-79">
          <mxGeometry relative="1" as="geometry">
            <Array as="points">
              <mxPoint x="812" y="832" />
            </Array>
          </mxGeometry>
        </mxCell>
        <mxCell id="SLQYYDcyx8Kkwv7ZYNaE-135" value="is_listed_in" style="curved=1;startArrow=ERmandOne;startSize=10;;endArrow=ERzeroToMany;endSize=10;;exitX=0.11;exitY=1;entryX=1;entryY=0.05;rounded=0;" edge="1" parent="1" source="SLQYYDcyx8Kkwv7ZYNaE-27" target="SLQYYDcyx8Kkwv7ZYNaE-79">
          <mxGeometry relative="1" as="geometry">
            <Array as="points">
              <mxPoint x="1038" y="832" />
            </Array>
          </mxGeometry>
        </mxCell>
        <mxCell id="SLQYYDcyx8Kkwv7ZYNaE-136" value="is_watched" style="curved=1;startArrow=ERmandOne;startSize=10;;endArrow=ERzeroToMany;endSize=10;;exitX=0.65;exitY=1;entryX=0.24;entryY=0;rounded=0;" edge="1" parent="1" source="SLQYYDcyx8Kkwv7ZYNaE-27" target="SLQYYDcyx8Kkwv7ZYNaE-92">
          <mxGeometry relative="1" as="geometry">
            <Array as="points">
              <mxPoint x="1223" y="832" />
            </Array>
          </mxGeometry>
        </mxCell>
        <mxCell id="SLQYYDcyx8Kkwv7ZYNaE-137" value="performs" style="curved=1;startArrow=ERmandOne;startSize=10;;endArrow=ERzeroToMany;endSize=10;;exitX=1;exitY=0.59;entryX=0.87;entryY=0;rounded=0;" edge="1" parent="1" source="SLQYYDcyx8Kkwv7ZYNaE-1" target="SLQYYDcyx8Kkwv7ZYNaE-92">
          <mxGeometry relative="1" as="geometry">
            <Array as="points">
              <mxPoint x="1460" y="242" />
              <mxPoint x="1460" y="832" />
            </Array>
          </mxGeometry>
        </mxCell>
        <mxCell id="SLQYYDcyx8Kkwv7ZYNaE-138" value="has" style="curved=1;startArrow=ERmandOne;startSize=10;;endArrow=ERzeroToMany;endSize=10;;exitX=1;exitY=0.74;entryX=0.07;entryY=0;rounded=0;" edge="1" parent="1" source="SLQYYDcyx8Kkwv7ZYNaE-27" target="SLQYYDcyx8Kkwv7ZYNaE-105">
          <mxGeometry relative="1" as="geometry">
            <Array as="points">
              <mxPoint x="1530" y="832" />
            </Array>
          </mxGeometry>
        </mxCell>
        <mxCell id="SLQYYDcyx8Kkwv7ZYNaE-139" value="placed_on" style="curved=1;startArrow=ERmandOne;startSize=10;;endArrow=ERzeroToMany;endSize=10;;exitX=0.5;exitY=1;entryX=0.59;entryY=0;rounded=0;" edge="1" parent="1" source="SLQYYDcyx8Kkwv7ZYNaE-118" target="SLQYYDcyx8Kkwv7ZYNaE-105">
          <mxGeometry relative="1" as="geometry">
            <Array as="points">
              <mxPoint x="1742" y="832" />
            </Array>
          </mxGeometry>
        </mxCell>
      </root>
    </mxGraphModel>
  </diagram>
</mxfile>
